<svg xmlns:mydata="http://www.w3.org/2000/svg" mydata:contrastcolor="A7A8AA" mydata:template="Contrast" mydata:presentation="2.5" mydata:layouttype="undefined" mydata:specialfontid="undefined" mydata:id1="855" mydata:id2="186" mydata:companyname="Diogo Dev" mydata:companytagline="" version="1.1" xmlns="http://www.w3.org/2000/svg" xmlns:xlink="http://www.w3.org/1999/xlink" viewBox="0 0 550 470"><g fill="#101820" fill-rule="none" stroke="none" stroke-width="1" stroke-linecap="butt" stroke-linejoin="miter" stroke-miterlimit="10" stroke-dasharray="" stroke-dashoffset="0" font-family="none" font-weight="none" font-size="none" text-anchor="none" style="mix-blend-mode: normal"><g data-paper-data="{&quot;isGlobalGroup&quot;:true,&quot;bounds&quot;:{&quot;x&quot;:76.52789745358349,&quot;y&quot;:185.03228792418219,&quot;width&quot;:396.944205092833,&quot;height&quot;:99.93542415163563}}"><g data-paper-data="{&quot;stacked&quot;:true,&quot;isPrimaryText&quot;:true}" fill-rule="nonzero"><path d="M277.86922,198.1575l-4.67619,17.53571h-9.08669l3.50714,-13.12521h-18.12023l-7.01428,26.25043h40.75724l5.68582,-4.4105l9.40552,-34.96515l-3.34773,-4.4105h-56.80508l12.54069,13.12521z" data-paper-data="{&quot;glyphName&quot;:&quot;D&quot;,&quot;glyphIndex&quot;:0,&quot;firstGlyphOfWord&quot;:true,&quot;word&quot;:1,&quot;line&quot;:1,&quot;firstGlyphOfFirstLine&quot;:true}"></path><path d="M293.17311,228.81843h18.12023l11.74361,-43.733h-18.12023z" data-paper-data="{&quot;glyphName&quot;:&quot;i&quot;,&quot;glyphIndex&quot;:1,&quot;word&quot;:1,&quot;line&quot;:1}"></path><path d="M357.3113,228.81843l5.68582,-4.4105l9.40552,-34.96515l-3.34773,-4.4105h-36.24047l-5.73896,4.4105l-9.35238,34.96515l3.34773,4.4105zM347.26812,215.69321h-9.08669l4.67619,-17.53571h9.08669z" data-paper-data="{&quot;glyphName&quot;:&quot;o&quot;,&quot;glyphIndex&quot;:2,&quot;word&quot;:1,&quot;line&quot;:1}"></path><path d="M407.84603,228.81843l5.68582,-4.35736l4.72933,-17.53571h-22.69015l-1.16905,4.4105h4.56991l-1.16905,4.35736h-9.08669l4.67619,-17.48257h9.08669l-1.16905,4.35736h18.12023l3.50714,-13.12521l-3.34773,-4.35736h-36.24047l-5.73896,4.35736l-9.35238,35.01828l3.34773,4.35736z" data-paper-data="{&quot;glyphName&quot;:&quot;g&quot;,&quot;glyphIndex&quot;:3,&quot;word&quot;:1,&quot;line&quot;:1}"></path><path d="M458.38076,228.81843l5.68582,-4.4105l9.40552,-34.96515l-3.34773,-4.4105h-36.24047l-5.73896,4.4105l-9.35238,34.96515l3.34773,4.4105zM448.33758,215.69321h-9.08669l4.67619,-17.53571h9.08669z" data-paper-data="{&quot;glyphName&quot;:&quot;o&quot;,&quot;glyphIndex&quot;:4,&quot;lastGlyphOfWord&quot;:true,&quot;word&quot;:1,&quot;line&quot;:1,&quot;lastGlyphOfFirstLine&quot;:true}"></path><path d="M277.86922,254.30679l-4.67619,17.53571h-9.08669l3.50714,-13.12521h-18.12023l-7.01428,26.25043h40.75724l5.68582,-4.4105l9.40552,-34.96515l-3.34773,-4.4105h-56.80508l12.54069,13.12521z" data-paper-data="{&quot;glyphName&quot;:&quot;D&quot;,&quot;glyphIndex&quot;:5,&quot;firstGlyphOfWord&quot;:true,&quot;word&quot;:2,&quot;line&quot;:2,&quot;firstGlyphOfSecondLine&quot;:true}"></path><path d="M346.52418,254.35993l3.50714,-13.12521h-40.75724l-5.73896,4.35736l-9.35238,35.01828l3.34773,4.35736h40.75724l3.50714,-13.12521h-27.15378l1.16905,-4.35736h22.63701l2.33809,-8.76786h-22.63701l1.16905,-4.35736z" data-paper-data="{&quot;glyphName&quot;:&quot;e&quot;,&quot;glyphIndex&quot;:6,&quot;word&quot;:2,&quot;line&quot;:2}"></path><path d="M371.33987,284.96771l21.99935,-16.84491l7.22684,-26.88809h-18.12023l-6.32348,23.54036c-6.16407,4.72933 -3.08203,2.33809 -9.2461,7.06742h-1.70043l8.18333,-30.60779h-18.0671l-10.57457,39.37564l3.34773,4.35736z" data-paper-data="{&quot;glyphName&quot;:&quot;v&quot;,&quot;glyphIndex&quot;:7,&quot;lastGlyphOfWord&quot;:true,&quot;word&quot;:2,&quot;line&quot;:2,&quot;lastGlyphOfSecondLine&quot;:true}"></path></g><g data-paper-data="{&quot;fillRule&quot;:&quot;evenodd&quot;,&quot;fillRuleOriginal&quot;:&quot;evenodd&quot;,&quot;isIcon&quot;:true,&quot;iconStyle&quot;:&quot;standalone&quot;,&quot;selectedEffects&quot;:{&quot;container&quot;:&quot;&quot;,&quot;transformation&quot;:&quot;&quot;,&quot;pattern&quot;:&quot;&quot;},&quot;bounds&quot;:{&quot;x&quot;:76.52789745358349,&quot;y&quot;:186.86443736696216,&quot;width&quot;:135.6176122015201,&quot;height&quot;:96.2711252660757},&quot;iconType&quot;:&quot;icon&quot;,&quot;rawIconId&quot;:&quot;1340339&quot;,&quot;isDetailed&quot;:false,&quot;suitableAsStandaloneIcon&quot;:true}" fill-rule="evenodd"><path d="M76.5279,235.00107l48.13556,-48.13664l13.18791,13.18791l-34.94765,34.94873l34.94765,34.94765l-13.18684,13.18684zM150.82096,200.05235l13.18791,-13.18791l48.13664,48.13664l-48.13664,48.13449l-13.18791,-13.18576l34.94765,-34.94873z" data-paper-data="{&quot;isPathIcon&quot;:true}"></path></g></g></g></svg>
